<svg width="40" height="50" viewBox="0 0 40 50" fill="none" xmlns="http://www.w3.org/2000/svg">
<path d="M19.9755 50L3.64024 45.9841L0 9.82617H40L36.3559 45.9784L19.9755 50Z" fill="#264DE4"/>
<path d="M33.2361 43.6764L36.3503 12.7826H20V46.9261L33.2361 43.6764Z" fill="#2965F1"/>
<path d="M8.34497 26.1931L8.79379 30.6276H19.9998V26.1931H8.34497Z" fill="#EBEBEB"/>
<path d="M7.44336 17.2173L7.89857 21.6519H20V17.2173H7.44336Z" fill="#EBEBEB"/>
<path d="M20.0001 37.7103L19.9781 37.7155L14.4012 36.3819L14.0446 32.845H9.01782L9.71938 39.808L19.977 42.3298L20.0001 42.3241V37.7103Z" fill="#EBEBEB"/>
<path d="M9.41357 0H15.4786V2.24609H11.9499V4.49219H15.4786V6.73828H9.41357V0Z" fill="black"/>
<path d="M16.6919 0H22.757V1.95312H19.2282V2.34375H22.757V6.83594H16.6919V4.78516H20.2207V4.39453H16.6919V0Z" fill="black"/>
<path d="M23.9697 0H30.0348V1.95312H26.506V2.34375H30.0348V6.83594H23.9697V4.78516H27.4985V4.39453H23.9697V0Z" fill="black"/>
<path d="M31.6227 26.1931L32.5267 17.2173H19.9827V21.652H27.0389L26.5832 26.1931H19.9827V30.6276H26.149L25.5677 36.379L19.9827 37.714V42.3276L30.2485 39.808L30.3238 39.0588L31.5005 27.3839L31.6227 26.1931Z" fill="white"/>
</svg>
