<svg width="40" height="40" viewBox="0 0 40 40" fill="none" xmlns="http://www.w3.org/2000/svg">
<path d="M20.0002 0C8.95583 0 0 9.18079 0 20.5063C0 29.5666 5.73066 37.2532 13.6773 39.9648C14.6769 40.1546 15.0438 39.5199 15.0438 38.9783C15.0438 38.4893 15.0253 36.8739 15.0167 35.1604C9.45262 36.4009 8.27853 32.7409 8.27853 32.7409C7.36874 30.3707 6.05788 29.7404 6.05788 29.7404C4.24326 28.4677 6.19466 28.4939 6.19466 28.4939C8.20302 28.6385 9.26053 30.607 9.26053 30.607C11.0443 33.742 13.9393 32.8357 15.0806 32.3117C15.2601 30.9864 15.7784 30.0817 16.3504 29.5696C11.9081 29.0511 7.23825 27.2928 7.23825 19.4353C7.23825 17.1965 8.01954 15.3672 9.29894 13.9311C9.09129 13.4146 8.40671 11.3289 9.49269 8.50435C9.49269 8.50435 11.1722 7.95322 14.9942 10.6063C16.5895 10.152 18.3005 9.92412 20.0002 9.91631C21.6999 9.92412 23.4121 10.152 25.0105 10.6063C28.8278 7.95322 30.505 8.50435 30.505 8.50435C31.5936 11.3289 30.9087 13.4146 30.7011 13.9311C31.9834 15.3672 32.7594 17.1965 32.7594 19.4353C32.7594 27.3115 28.0806 29.0457 23.6271 29.5533C24.3444 30.1897 24.9836 31.4376 24.9836 33.3508C24.9836 36.0946 24.9605 38.3029 24.9605 38.9783C24.9605 39.524 25.3205 40.1634 26.3343 39.962C34.2766 37.2475 40 29.5635 40 20.5063C40 9.18079 31.0455 0 20.0002 0Z" fill="white"/>
<path d="M7.63424 29.3019C7.59028 29.4028 7.43424 29.4331 7.2921 29.3638C7.1473 29.2976 7.06598 29.16 7.11292 29.0588C7.1559 28.9549 7.31226 28.926 7.45672 28.9956C7.60185 29.0619 7.68449 29.2007 7.63424 29.3019Z" fill="#161514"/>
<path d="M8.44282 30.2191C8.34762 30.3089 8.1615 30.2672 8.03522 30.1253C7.90464 29.9838 7.88018 29.7945 7.97671 29.7033C8.07489 29.6136 8.25539 29.6556 8.3863 29.7972C8.51687 29.9404 8.54233 30.1283 8.44282 30.2191Z" fill="#161514"/>
<path d="M9.22974 31.3886C9.10743 31.475 8.90743 31.3939 8.78379 31.2134C8.66148 31.0328 8.66148 30.8163 8.78644 30.7295C8.9104 30.6428 9.10743 30.7208 9.23272 30.9C9.3547 31.0836 9.3547 31.3001 9.22974 31.3886Z" fill="#161514"/>
<path d="M10.308 32.5183C10.1986 32.641 9.96549 32.608 9.79491 32.4406C9.62037 32.2769 9.57177 32.0445 9.68153 31.9218C9.79227 31.7987 10.0266 31.8334 10.1986 31.9995C10.3718 32.1629 10.4247 32.3969 10.308 32.5183Z" fill="#161514"/>
<path d="M11.7955 33.1742C11.7472 33.3333 11.5228 33.4056 11.2967 33.338C11.0709 33.2684 10.9231 33.0821 10.9687 32.9214C11.0157 32.7614 11.2411 32.686 11.4689 32.7583C11.6943 32.8276 11.8424 33.0125 11.7955 33.1742Z" fill="#161514"/>
<path d="M13.4296 33.296C13.4352 33.4634 13.2435 33.6023 13.0062 33.6053C12.7675 33.6107 12.5744 33.4752 12.5718 33.3104C12.5718 33.1413 12.7592 33.0038 12.9979 32.9998C13.2352 32.995 13.4296 33.1295 13.4296 33.296Z" fill="#161514"/>
<path d="M14.9498 33.0327C14.9782 33.1961 14.8132 33.3639 14.5775 33.4086C14.3458 33.4516 14.1313 33.3508 14.1018 33.1887C14.0731 33.0213 14.241 32.8535 14.4724 32.8101C14.7085 32.7684 14.9197 32.8666 14.9498 33.0327Z" fill="#161514"/>
</svg>
