<svg width="40" height="40" viewBox="0 0 40 40" fill="none" xmlns="http://www.w3.org/2000/svg">
<path d="M0 20C0 8.9543 8.9543 0 20 0C31.0457 0 40 8.9543 40 20C40 31.0457 31.0457 40 20 40C8.9543 40 0 31.0457 0 20Z" fill="white"/>
<mask id="mask0" mask-type="alpha" maskUnits="userSpaceOnUse" x="0" y="0" width="40" height="40">
<path fill-rule="evenodd" clip-rule="evenodd" d="M0 20C0 8.9543 8.9543 0 20 0C31.0457 0 40 8.9543 40 20C40 31.0457 31.0457 40 20 40C8.9543 40 0 31.0457 0 20Z" fill="white"/>
</mask>
<g mask="url(#mask0)">
<path fill-rule="evenodd" clip-rule="evenodd" d="M20.0012 9.33334C17.1042 9.33334 16.7407 9.34601 15.6029 9.39779C14.4673 9.44979 13.6922 9.62957 13.014 9.89335C12.3124 10.1658 11.7173 10.5302 11.1244 11.1234C10.5311 11.7163 10.1666 12.3114 9.89328 13.0127C9.62883 13.6912 9.44883 14.4665 9.39772 15.6016C9.34683 16.7394 9.3335 17.1032 9.3335 20.0001C9.3335 22.897 9.34639 23.2595 9.39794 24.3973C9.45016 25.5328 9.62994 26.308 9.8935 26.9862C10.1662 27.6878 10.5306 28.2829 11.1237 28.8758C11.7164 29.4691 12.3115 29.8344 13.0126 30.1069C13.6913 30.3707 14.4667 30.5504 15.602 30.6024C16.7398 30.6542 17.1031 30.6669 19.9998 30.6669C22.897 30.6669 23.2594 30.6542 24.3972 30.6024C25.5328 30.5504 26.3088 30.3707 26.9875 30.1069C27.6888 29.8344 28.283 29.4691 28.8757 28.8758C29.469 28.2829 29.8335 27.6878 30.1068 26.9864C30.369 26.308 30.549 25.5326 30.6024 24.3975C30.6535 23.2597 30.6668 22.897 30.6668 20.0001C30.6668 17.1032 30.6535 16.7396 30.6024 15.6019C30.549 14.4663 30.369 13.6912 30.1068 13.0129C29.8335 12.3114 29.469 11.7163 28.8757 11.1234C28.2824 10.53 27.689 10.1656 26.9868 9.89335C26.3068 9.62957 25.5312 9.44979 24.3957 9.39779C23.2579 9.34601 22.8956 9.33334 19.9978 9.33334H20.0012ZM19.0443 11.2556C19.2301 11.2553 19.43 11.2554 19.6457 11.2555L20.0012 11.2556C22.8492 11.2556 23.1868 11.2658 24.3115 11.3169C25.3515 11.3645 25.9159 11.5383 26.2919 11.6843C26.7897 11.8776 27.1446 12.1087 27.5177 12.482C27.891 12.8554 28.1222 13.2109 28.3159 13.7087C28.4619 14.0843 28.6359 14.6487 28.6833 15.6887C28.7344 16.8132 28.7455 17.151 28.7455 19.9977C28.7455 22.8444 28.7344 23.1822 28.6833 24.3066C28.6357 25.3466 28.4619 25.9111 28.3159 26.2866C28.1226 26.7844 27.891 27.1389 27.5177 27.512C27.1444 27.8853 26.7899 28.1164 26.2919 28.3098C25.9164 28.4564 25.3515 28.6298 24.3115 28.6773C23.187 28.7284 22.8492 28.7395 20.0012 28.7395C17.1529 28.7395 16.8154 28.7284 15.6909 28.6773C14.6509 28.6293 14.0865 28.4555 13.7102 28.3095C13.2124 28.1162 12.8569 27.8851 12.4836 27.5118C12.1102 27.1384 11.8791 26.7838 11.6853 26.2857C11.5393 25.9102 11.3653 25.3457 11.318 24.3057C11.2669 23.1813 11.2566 22.8435 11.2566 19.995C11.2566 17.1465 11.2669 16.8105 11.318 15.6861C11.3655 14.6461 11.5393 14.0816 11.6853 13.7056C11.8787 13.2078 12.1102 12.8523 12.4836 12.4789C12.8569 12.1056 13.2124 11.8745 13.7102 11.6807C14.0862 11.534 14.6509 11.3607 15.6909 11.3129C16.6749 11.2685 17.0563 11.2551 19.0443 11.2529V11.2556ZM24.415 14.3063C24.415 13.5994 24.9883 13.0267 25.695 13.0267V13.0263C26.4017 13.0263 26.975 13.5996 26.975 14.3063C26.975 15.013 26.4017 15.5863 25.695 15.5863C24.9883 15.5863 24.415 15.013 24.415 14.3063ZM20.0009 14.5223C16.9759 14.5224 14.5233 16.975 14.5233 20.0001C14.5233 23.0253 16.976 25.4768 20.0011 25.4768C23.0263 25.4768 25.4781 23.0253 25.4781 20.0001C25.4781 16.975 23.026 14.5223 20.0009 14.5223ZM23.5567 20.0001C23.5567 18.0363 21.9647 16.4445 20.0011 16.4445C18.0373 16.4445 16.4455 18.0363 16.4455 20.0001C16.4455 21.9637 18.0373 23.5557 20.0011 23.5557C21.9647 23.5557 23.5567 21.9637 23.5567 20.0001Z" fill="black"/>
</g>
</svg>
