<svg width="40" height="40" viewBox="0 0 40 40" fill="none" xmlns="http://www.w3.org/2000/svg">
<path d="M2.72727 35.0073H9.09091V19.5528L0 12.7346V32.2801C0 33.7869 1.22045 35.0073 2.72727 35.0073Z" fill="#4285F4"/>
<path d="M30.9092 35.0073H37.2728C38.7796 35.0073 40.0001 33.7869 40.0001 32.2801V12.7346L30.9092 19.5528V35.0073Z" fill="#34A853"/>
<path d="M30.9092 7.73462V19.5528L40.0001 12.7346V9.09826C40.0001 5.7278 36.1524 3.8028 33.4546 5.82553L30.9092 7.73462Z" fill="#FBBC04"/>
<path fill-rule="evenodd" clip-rule="evenodd" d="M9.09082 19.5528V7.73459L19.9999 15.9164L30.909 7.73459V19.5528L19.9999 27.7346L9.09082 19.5528Z" fill="#EA4335"/>
<path d="M0 9.09826V12.7346L9.09091 19.5528V7.73462L6.54545 5.82553C3.84773 3.8028 0 5.7278 0 9.09826Z" fill="#C5221F"/>
</svg>
